<svg xmlns="http://www.w3.org/2000/svg" viewBox="0 0 32 32" fill="none">
  <rect width="32" height="32" rx="6" fill="#080608"/>
  <path d="M 26 5 C 28 8, 29 13, 27 18 C 25 23, 20 28, 16 29 C 10 30, 5 26, 3 21 C 1 16, 4 9, 9 6 C 13 3, 19 2.5, 22 4 Z" fill="none" stroke="#C8C8D4" stroke-width="1.5" stroke-linecap="round"/>
  <path d="M 22 4 C 25 1.5, 29 2.5, 29 6 C 29 8, 27 9, 26 5" fill="none" stroke="#C8182A" stroke-width="1" stroke-linecap="round"/>
  <path d="M 3 21 C 1 24, 5 29, 10 27" fill="none" stroke="#C8182A" stroke-width="1" stroke-linecap="round"/>
  <circle cx="16" cy="11" r="2" stroke="#C8182A" stroke-width="0.8" fill="none"/>
  <path d="M 16 13 L 16 18" stroke="#C8182A" stroke-width="0.8" stroke-linecap="round"/>
  <path d="M 16 18 C 13 19, 12 22, 14 23 C 16 24, 18 23, 18 22 C 18 19, 16 18, 16 18 Z" stroke="#C8182A" stroke-width="0.8" fill="none"/>
</svg>
